<?xml version="1.0" encoding="utf-8"?>
<!-- Generator: Adobe Illustrator 27.5.0, SVG Export Plug-In . SVG Version: 6.00 Build 0)  -->
<svg version="1.1" id="Capa_1" xmlns="http://www.w3.org/2000/svg" xmlns:xlink="http://www.w3.org/1999/xlink" x="0px" y="0px"
	 viewBox="0 0 2122 2122" style="enable-background:new 0 0 2122 2122;" xml:space="preserve">
<g>
	<path style="fill:#00A795;" d="M1525.633,567.188c-86.273,20.762-116.621,49.285-191.41,96.277
		c-69.875,43.902-159.438,149.445-247.914,226.063c29.219-85.453,63.473-169.082,103.344-249.848
		c84.168-74.871,189.828-147.313,238.57-208.402c55.086-69.035,86.828-95.992,117.152-179.395
		c37.238-102.414-65.258-154.723-159.926-121.387c-198.016,69.715-247.219,347.051-247.305,533.387
		c-24.844,53.559-47.191,108.352-67.371,163.887c-4.844-115.637,9.016-250.105-7.137-329.648
		c-17.582-86.551-17.871-128.195-62.371-204.98c-54.629-94.285-160.527-49.273-195.727,44.719
		c-68.137,181.875,81.762,380.145,217.684,503.566c6.496,20.402,12.93,40.82,19.113,61.301c0.395,1.297,0.891,2.469,1.465,3.551
		c-15.23,46.922-29.07,94.195-41.664,141.531c-9.473,35.598-18.156,71.469-26.199,107.523
		c-37.676-111.5-61.082-249.652-99.176-323.641c-40.43-78.523-52.019-118.52-115.707-180.328
		c-78.195-75.902-167.875-3.816-176.227,96.203c-16.519,197.844,190.867,350.293,357.195,430.859
		c4.066,5.984,8.113,11.98,12.293,17.887c3.059,4.32,7.09,6.605,11.293,7.418c-18.043,88.492-31.652,178.055-40.313,268.043
		c-0.441-0.195-0.883-0.402-1.32-0.594c-64.582-78.887-125.785-183.172-179.258-231.344
		c-57.023-51.367-78.75-80.313-149.523-110.953c-86.906-37.617-137.609,48.566-113.617,132.422
		c47.637,166.504,264.543,226.402,424.703,240.402c5.176,2.41,10.406,4.695,15.688,6.895c-4.121,50.898-6.559,101.898-7.391,152.875
		c-3.629,5.301-3.203,11.969-0.223,17.422c-0.312,35.77,0.113,71.527,1.504,107.215c2.871,73.52,10.297,146.883,22.574,219.426
		c3.805,22.473,37.91,12.914,34.133-9.41c-17.562-103.77-24.695-209.301-23.707-314.945c13.16-6.969,26.402-13.789,39.707-20.473
		c159.414,13.691,382.613-7.914,457.789-163.152c37.824-78.105,2.828-171.242-88.781-149.191
		c-74.598,17.953-100.84,42.621-165.512,83.25c-60.105,37.77-137.063,128.281-213.184,194.449
		c-9.777,4.867-19.527,9.793-29.234,14.797c2.746-96.234,11.992-192.383,25.996-287.238c18.973-6.82,37.656-14.34,56.066-22.449
		c181.934,11.383,421.094-19.109,504.117-190.563c43.754-90.328,3.273-198.039-102.668-172.535
		c-86.277,20.762-116.621,49.285-191.41,96.273c-72.391,45.48-165.906,157.113-257.449,234.211
		c1.367-8.156,2.754-16.305,4.188-24.434c19.801-112.594,46.59-224.773,81.293-334.395c8.77-3.695,17.449-7.59,26.066-11.59
		c184.555,16.359,445.043-7.902,532.457-188.422C1672.055,649.394,1631.582,541.684,1525.633,567.188z"/>
	<g>
		<path style="fill:#90C67E;" d="M850.18,963.922c42.102,65.906,79.941,134.457,124.066,199.051
			c0.566-2.551,1.121-5.098,1.691-7.641c-37.676-111.496-61.082-249.652-99.176-323.641
			c-40.43-78.523-52.019-118.52-115.707-180.328c-78.195-75.902-167.875-3.816-176.227,96.203
			c-16.519,197.844,190.867,350.293,357.195,430.859c-43.422-63.887-80.832-131.555-122.41-196.641
			C807.281,962.484,837.938,944.75,850.18,963.922z"/>
		<path style="fill:#90C67E;" d="M1302.82,1502.004c-100.688,60.727-209.355,106.031-314.254,158.707
			c159.414,13.688,382.613-7.914,457.789-163.152c37.824-78.105,2.828-171.242-88.781-149.191
			c-74.598,17.953-100.84,42.621-165.512,83.25c-60.105,37.77-137.063,128.281-213.184,194.449
			c102.363-50.953,208.004-95.477,306.07-154.629C1304.547,1459.613,1322.332,1490.234,1302.82,1502.004z"/>
		<path style="fill:#8C4257;" d="M1309.133,781.172c-77.563,32.574-148.438,78.566-224.66,113.738
			c0.605-1.797,1.227-3.586,1.836-5.383c29.219-85.453,63.473-169.082,103.344-249.848c11.789-23.883,23.969-47.566,36.754-70.918
			c29.031-53.035,61.27-104.316,96.699-153.313c13.402-18.535-17.324-36.176-30.566-17.863
			c-60.191,83.242-111.074,172.895-154.395,266.297c-24.844,53.559-47.191,108.352-67.371,163.887
			c-2.648,7.281-5.254,14.574-7.824,21.879c-27.746-87.891-57.758-175.258-76.285-265.652c-4.578-22.355-38.695-12.871-34.133,9.41
			c17.289,84.348,44.574,166.059,70.691,248.02c6.496,20.402,12.93,40.82,19.113,61.301c0.395,1.297,0.891,2.469,1.465,3.551
			c-15.23,46.922-29.07,94.195-41.664,141.531c-9.473,35.598-18.156,71.469-26.199,107.523c-0.57,2.543-1.125,5.09-1.691,7.641
			c-44.125-64.594-81.965-133.145-124.066-199.051c-12.242-19.172-42.898-1.438-30.566,17.863
			c41.578,65.086,78.988,132.754,122.41,196.641c4.066,5.984,8.113,11.98,12.293,17.887c3.059,4.32,7.09,6.605,11.293,7.418
			c-18.043,88.492-31.652,178.055-40.313,268.043c-0.441-0.195-0.883-0.402-1.32-0.594
			c-67.594-30.203-126.395-80.434-184.914-124.469c-18.262-13.734-35.867,17.023-17.871,30.566
			c59.066,44.445,117.68,93.055,185.09,124.434c5.176,2.406,10.406,4.691,15.688,6.891c-4.121,50.898-6.559,101.898-7.391,152.875
			c-3.629,5.301-3.203,11.969-0.223,17.422c-0.312,35.77,0.113,71.527,1.504,107.215c2.871,73.52,10.297,146.883,22.574,219.426
			c3.805,22.473,37.91,12.914,34.133-9.41c-17.562-103.77-24.695-209.301-23.707-314.945c13.16-6.969,26.402-13.789,39.707-20.473
			c104.898-52.676,213.566-97.98,314.254-158.707c19.512-11.77,1.727-42.391-17.871-30.566
			c-98.066,59.152-203.707,103.676-306.07,154.629c-9.777,4.867-19.527,9.793-29.234,14.797
			c2.746-96.234,11.992-192.383,25.996-287.238c18.973-6.82,37.656-14.34,56.066-22.449
			c83.586-36.855,161.598-86.051,236.188-138.488c18.516-13.023,0.859-43.734-17.871-30.57
			c-83.828,58.938-172.184,114.66-268.207,151.563c0.816-5.043,1.641-10.086,2.481-15.117c1.367-8.156,2.754-16.305,4.188-24.434
			c19.801-112.594,46.59-224.773,81.293-334.395c8.77-3.695,17.449-7.59,26.066-11.59c75.523-35.074,145.84-80.559,222.703-112.84
			C1339.262,806.606,1330.172,772.336,1309.133,781.172z"/>
	</g>
</g>
</svg>
