<svg width="20" height="20" viewBox="0 0 20 20" fill="none" xmlns="http://www.w3.org/2000/svg">
<path fill-rule="evenodd" clip-rule="evenodd" d="M7.75 0C3.46979 0 0 3.46979 0 7.75C0 12.0302 3.46979 15.5 7.75 15.5C9.62001 15.5 11.3353 14.8377 12.6742 13.7348L18.2197 19.2803L18.3038 19.3529C18.5974 19.5708 19.0141 19.5466 19.2803 19.2803C19.5732 18.9874 19.5732 18.5126 19.2803 18.2197L13.7348 12.6742C14.8377 11.3353 15.5 9.62001 15.5 7.75C15.5 3.46979 12.0302 0 7.75 0ZM7.75 1.5C11.2018 1.5 14 4.29822 14 7.75C14 11.2018 11.2018 14 7.75 14C4.29822 14 1.5 11.2018 1.5 7.75C1.5 4.29822 4.29822 1.5 7.75 1.5Z" fill="#111111"/>
</svg>
